<?xml version="1.0" encoding="utf-8"?>
<!-- Generator: Adobe Illustrator 16.0.0, SVG Export Plug-In . SVG Version: 6.00 Build 0)  -->
<!DOCTYPE svg PUBLIC "-//W3C//DTD SVG 1.1//EN" "http://www.w3.org/Graphics/SVG/1.1/DTD/svg11.dtd">
<svg version="1.1" id="图层_1" xmlns="http://www.w3.org/2000/svg" xmlns:xlink="http://www.w3.org/1999/xlink" x="0px" y="0px"
	 width="612px" height="792px" viewBox="0 0 612 792" enable-background="new 0 0 612 792" xml:space="preserve">
<path d="M390.683,463.477c-4.818,7.589-12.607,12.332-20.164,17.014c-0.491-1.566-0.956-3.142-1.399-4.721
	c-1.57-5.594-2.964-11.238-4.388-16.87c-1.821-7.205-3.662-14.407-5.614-21.577c7.239-12.169,12.587-25.248,13.562-39.728
	c1.386-20.601-9.452-38.789-22.392-53.848c-9.979-11.613-21.478-21.894-32.921-32.081c16.62-6.866,32.09-15.916,39.29-33.54
	c7.523-18.415,3.724-42.758-12.714-54.986c-15.986-11.892-38.604-12.915-57.736-11.953c-20.842,1.048-42.341,6.149-59.66,18.211
	c-11.371,7.92-19.75,18.734-24.94,31.535C194.5,278.459,196.946,298.548,197,317c0.005,1.763,0.759,3.041,1.848,3.839
	c-18.043,7.983-36.73,17.789-47.933,34.553c-11.704,17.516-8.144,42.162,6.752,56.601c6.775,6.567,15.32,10.839,22.675,16.653
	c7.945,6.281,11.296,13.781,10.979,23.903c-0.491,15.641-14.502,29.556-6.958,45.242c3.927,8.165,13.061,14.142,20.793,18.271
	c8.597,4.59,18.124,8.322,25.601,14.712c1.725,1.475,4.381,3.838,3.05,6.278c-0.309,0.565-0.734,1.077-1.235,1.544
	c-0.481,0.271-0.917,0.612-1.269,0.993c-1.947,1.302-4.434,2.181-6.258,2.862c-7.841,2.926-16.199,4.122-24.372,5.727
	c-0.186,0.036-0.361,0.082-0.531,0.132c-0.543-11.435-5.327-22.689-18.14-24.311c-2.18-0.276-4.272,1.732-4.821,3.671
	c-2.677,9.443,1.053,19.079,7.372,26.216c-17.394,5.393-19.56,32.425-12.868,47.636c1.37,3.113,5.691,2.958,7.853,1.012
	c9.049-8.143,14.65-18.259,20.16-28.55c1.589,7.713,4.601,14.921,11.781,19.332c2.95,1.813,6.246-0.058,7.345-2.988
	c1.981-5.282,4.597-12.576,5.401-19.607c8.79,5.234,16.387,13.08,23.467,19.913c10.175,9.818,22.093,21.702,37.321,21.318
	c8.383-0.211,15.725-4.644,22-9.831c7.387-6.106,16.222-15.443,18.227-25.159c1.659-8.039-4.106-13.263-10.969-15.969
	c-10.104-3.985-21.091-5.451-31.4-8.855c-6.061-2.001-12.042-4.22-18.052-6.32c0.03-0.042,0.061-0.085,0.09-0.126
	c4.043-5.738,9.049-10.822,14.037-15.733c9.686-9.536,20.201-18.189,29.506-28.116c10.452-11.15,20.139-23.168,29.613-35.15
	c4.637-5.865,9.332-11.874,13.71-18.097c1.189,4.572,2.353,9.151,3.51,13.729c2.361,9.339,4.139,19.481,8.401,28.2
	c1.152,2.358,4.687,3.212,6.841,1.794c10.498-6.909,21.865-12.88,28.794-23.794C402.785,463.062,394.128,458.05,390.683,463.477z
	 M189.851,544.446c-1.74-2.527-3.007-5.319-3.416-8.26C188.372,538.167,189.375,541.226,189.851,544.446z M178.322,589.312
	C176.485,577.609,179.768,562.088,193,563c0.489,0.034,0.936,0.001,1.35-0.077C189.448,572.059,184.951,581.329,178.322,589.312z
	 M212.072,580.028c-2.536-4.303-3.241-9.979-3.757-14.987c2.197,0.254,4.323,0.72,6.384,1.359
	C214.986,570.536,213.606,575.619,212.072,580.028z M276.924,560.66c10.799,3.776,22.12,5.591,32.914,9.301
	c1.804,0.62,5.046,1.779,5.646,3.598c0.973,2.951-3.193,7.893-4.814,10.134c-5.374,7.431-13.154,15.208-22.233,17.721
	c-13.484,3.732-25.837-10.288-34.385-18.536c-9.244-8.921-18.983-18.417-30.772-23.772c-0.642-1.771-1.571-3.402-2.855-4.83
	c2.109-0.537,4.205-1.136,6.28-1.83c0.671-0.225,1.36-0.47,2.055-0.727c0.548,3.571,2.37,6.897,5.706,9.816
	c4.831,4.227,11.933-2.817,7.071-7.071c-2.189-1.916-3.262-3.678-3.074-5.928c3.869,0.674,7.691,1.615,11.477,2.72
	c-0.513,1.189-0.987,2.392-1.39,3.616c-5.664,17.208,11.475,28.785,23.928,36.445c5.509,3.389,10.528-5.264,5.047-8.635
	c-7.773-4.781-20.114-11.257-19.972-21.841c0.03-2.238,0.746-4.435,1.782-6.545C265.245,556.363,271.093,558.621,276.924,560.66z
	 M355.245,423.638c-0.007,0.015-0.015,0.029-0.021,0.043c-0.801-2.673-1.617-5.342-2.471-8
	c-4.535-14.116-9.836-28.332-17.608-41.019c-5.871-9.584-14.223-19.44-25.721-21.951c-20.918-4.567-40.42,16.569-41.607,36.117
	c-0.356,5.863,2.683,12.19,8.418,14.265c4.907,1.775,10.542,0.271,15.294-1.293c11.194-3.685,21.085-10.773,31.801-14.979
	c5.932-2.328,3.352-12.002-2.658-9.643c-7.676,3.013-14.795,7.433-22.226,10.989c-3.836,1.836-17.21,9.36-20.253,3.906
	c-1.799-3.225,0.667-9.121,1.974-12.071c1.921-4.339,4.637-8.491,8.37-11.468c4.107-3.275,9.488-6.082,14.39-6.393
	c9.752-0.619,17.439,8.073,22.751,16.248c7.925,12.198,12.973,26.19,17.432,39.95c1.888,5.824,3.619,11.696,5.262,17.593
	c-5.574,8.787-12.102,17.01-18.527,25.136c-9.421,11.916-19.149,23.76-29.54,34.846c-9.309,9.931-19.906,18.577-29.599,28.12
	c-5.58,5.494-11.423,11.644-15.954,18.455c-3.681-1.129-7.395-2.144-11.165-2.971c0.132-0.403,0.255-0.813,0.348-1.239
	c1.917-8.737-5.972-15.003-12.347-19.266c-7.709-5.155-16.379-8.587-24.368-13.241c-6.536-3.807-15.368-9.858-15.328-18.324
	c0.033-6.982,4.614-14.154,6.772-20.646c3.037-9.132,3.842-19.574,0.863-28.822c-2.89-8.973-10.086-15.197-17.523-20.465
	c-7.926-5.614-16.832-10.347-22.414-18.581c-6.114-9.019-7.184-21.351-3.666-31.491c7.064-20.356,32.489-31.246,50.598-39.127
	c4.184-1.821,2.835-6.678-0.388-8.444c0.538-0.746,0.868-1.702,0.864-2.874c-0.044-14.996-1.919-31.07,1.761-45.758
	c2.586-10.318,8.002-19.539,15.5-27.037c14.75-14.753,36.583-20.784,56.8-22.653c18.26-1.688,42.409-1.917,57.626,10.072
	c15.856,12.493,14.537,39.471,2.127,53.847c-8.682,10.058-22.043,15.149-34.143,19.707c-3.272,1.232-5.244,5.636-2.207,8.357
	c17.501,15.674,36.736,31.283,49.276,51.453C365.384,383.715,364.605,404.089,355.245,423.638z"/>
<path fill-rule="evenodd" clip-rule="evenodd" fill="none" d="M287.67,382.205l3.535-3.535l33.125,33.125l-3.535,3.535
	L287.67,382.205z"/>
<path fill-rule="evenodd" clip-rule="evenodd" fill="none" d="M324.33,382.205l-3.535-3.535l-33.125,33.125l3.535,3.535
	L324.33,382.205z"/>
</svg>
