<?xml version="1.0" encoding="utf-8"?>
<!-- Generator: Adobe Illustrator 17.0.0, SVG Export Plug-In . SVG Version: 6.00 Build 0)  -->
<!DOCTYPE svg PUBLIC "-//W3C//DTD SVG 1.1//EN" "http://www.w3.org/Graphics/SVG/1.1/DTD/svg11.dtd">
<svg version="1.1" id="图层_1" xmlns="http://www.w3.org/2000/svg" xmlns:xlink="http://www.w3.org/1999/xlink" x="0px" y="0px"
	 width="48px" height="48px" viewBox="0 0 48 48" enable-background="new 0 0 48 48" xml:space="preserve">
<path fill="#E94B19" d="M121.917,0.016c-8.358-0.696-33.496,20.935-25.586,54.895c7.908,33.959,38.146,65.593,40.938,83.737
	c2.791,18.143,2.791,37.216-25.122,40.007c-27.912,2.792-46.056-2.791-65.129-3.257c-19.073-0.465-46.056,10.7-46.986,33.496
	c-0.93,22.794,18.609,32.564,18.609,32.564S4.219,253.553,5.15,274.487c0.93,20.935,17.213,31.634,17.213,31.634
	s-11.629,28.843-1.861,41.404c9.77,12.56,21.4,18.143,21.4,18.143s-2.791,27.912,8.374,39.078
	c11.165,11.165,33.293,36.354,134.91,20.003c27.748-4.465,75.363-14.422,75.363-14.422s54.428-141.139,54.428-187.478
	c0-0.466-21.918-23.766-31.168-43.729c-8.84-19.073-38.893-48.101-73.969-72.572C169.833,78.636,127.499,0.481,121.917,0.016z"/>
<path fill="#E94B19" d="M330.329,225.177c0,0-32.292,147.129-53.964,174.453c-5.38,6.782,0.466,24.19,6.978,26.981
	c6.513,2.791,37.217,13.026,55.36,7.444c18.143-5.583,56.29-83.737,60.012-103.741c3.721-20.005,18.143-84.668,13.026-98.159
	C406.622,218.663,333.585,214.476,330.329,225.177z"/>
</svg>
