<?xml version="1.0" encoding="utf-8"?>
<!-- Generator: Adobe Illustrator 17.0.0, SVG Export Plug-In . SVG Version: 6.00 Build 0)  -->
<!DOCTYPE svg PUBLIC "-//W3C//DTD SVG 1.1//EN" "http://www.w3.org/Graphics/SVG/1.1/DTD/svg11.dtd">
<svg version="1.1" id="图层_1" xmlns="http://www.w3.org/2000/svg" xmlns:xlink="http://www.w3.org/1999/xlink" x="0px" y="0px"
	 width="48px" height="48px" viewBox="0 0 48 48" enable-background="new 0 0 48 48" xml:space="preserve">
<path fill="#A03224" d="M333.184,374.484c-11.569,17.688-28.387,33.211-48.997,44.933c31.007,68.849,60.356,136.001,59.616,141.905
	c0,0.081-0.039,0.081-0.06,0.161L277.16,423.179c-0.81,0.404-1.548,0.891-2.367,1.253c23.594,49.353,46.428,96.923,60.071,124.311
	c-14.724-24.595-40.957-72.452-66.706-121.235c-13.298,5.662-26.84,9.465-40.189,11.124c-49.877,6.311-96.65-14.281-114.895-54.802
	c-10.205-22.735-0.242-32.667,15.908-57.181L89.398,162.948c-24.452,1.975-51.909-15.158-68.576-29.973
	c39.715,11.7,76.577,2.669,101.19-7.718c3.49,5.827,13.341,22.33,14.583,24.858c15.667-6.704,27.64-14.622,35.589-21.014
	l-0.042-0.081l-7.322-28.772c17.072-13.229,30.471-28.409,38.016-43.164c-0.181,18.983-3.438,43.286-15.168,56.846
	c0,0,65.674,100.017,92.795,142.089c30.359,3.458,53.105,0.628,63.682,24.089C357.74,310.327,352.379,345.033,333.184,374.484z
	 M174.703,133.701c-8.223,6.514-20.298,14.412-36.023,21.147l89.167,209.149c7.059-2.326,14.018-5.036,20.429-8.464
	c13.724-7.353,24.716-16.979,32.463-27.903L174.703,133.701z M329.22,358.949l-45.001-27.314
	c-8.174,11.164-19.499,20.975-33.495,28.468c-6.745,3.6-14.067,6.431-21.491,8.868l-1.021,53.196l-0.021,0.404
	c11.872-2.59,23.887-6.514,35.821-11.853c27.893-12.528,50.484-30.795,65.411-51.019L329.22,358.949z M133.776,114.123
	c-23.767,12.408-71.084,30.26-121.235,10.941c-4.207-3.407-7.626-7.392-9.769-12.176c-2.316-5.208-3.116-10.891-2.639-16.818
	C2.449,68.886,33,36.121,77.598,16.076c44.609-20.003,89.4-21.055,111.234-4.743c4.795,3.582,8.464,7.948,10.822,13.158
	c2.337,5.216,3.144,10.892,2.639,16.848c0.081,0.92,0.122,2.063,0.182,3.073C195.253,68.2,167.614,96.466,133.776,114.123z"/>
</svg>
